<svg width="114" height="114" viewBox="0 0 114 114" fill="none" xmlns="http://www.w3.org/2000/svg">
<circle cx="56.9998" cy="56.9998" r="56.4998" fill="white" stroke="#DDDDDD"/>
<mask id="mask0_13873_27421" style="mask-type:alpha" maskUnits="userSpaceOnUse" x="1" y="2" width="112" height="112">
<circle cx="57.4252" cy="58.4254" r="55.0748" fill="white" stroke="#DDDDDD"/>
</mask>
<g mask="url(#mask0_13873_27421)">
<path d="M91.9993 65.364C91.9995 91.0445 99.796 145.25 110.38 150.326L52.3397 149.843H2.37988C13.4351 144.934 23.8566 91.0704 23.8569 65.364V58.3262H91.8436L91.9993 65.364Z" fill="#E2E2E2"/>
<path d="M91.7511 56.3262L91.9339 64.6625V64.6903L91.9574 67.174C92.1801 79.9857 94.0542 98.5685 97.0781 114.893C98.691 123.6 100.622 131.618 102.786 137.754C103.869 140.825 104.998 143.384 106.15 145.309C107.324 147.272 108.426 148.411 109.38 148.875L108.769 151.326L51.3546 150.841H1.94392L1.37988 148.372C2.39941 147.912 3.58626 146.78 4.87117 144.844C6.13435 142.941 7.39907 140.407 8.63402 137.365C11.1023 131.285 13.3961 123.324 15.3607 114.673C19.0454 98.4458 21.5279 79.9556 21.8236 67.1689L21.8523 64.6903V56.3262H91.7511ZM24.4949 67.2145C24.1952 80.2207 21.6852 98.8881 17.9746 115.229C15.995 123.947 13.6628 132.053 11.1226 138.311C9.85338 141.437 8.51565 144.143 7.12209 146.242C6.63789 146.972 6.13183 147.647 5.60755 148.251H51.3755L105.278 148.706C104.772 148.076 104.292 147.369 103.836 146.607C102.563 144.478 101.368 141.745 100.256 138.592C98.0296 132.279 96.0699 124.117 94.446 115.351C91.2002 97.8291 89.2628 77.7071 89.26 64.7181L89.1346 58.9161H24.5263V64.6903L24.4949 67.2145Z" fill="#BBBBBB"/>
<path d="M21.7439 59.9481C21.7439 40.457 37.5446 24.6562 57.0358 24.6562C76.5269 24.6562 92.3277 40.457 92.3277 59.9481V69.3593C92.3277 88.8504 76.5269 104.651 57.0358 104.651C37.5446 104.651 21.7439 88.8505 21.7439 69.3593V59.9481Z" fill="#F2F2F2"/>
<path d="M89.7373 69.3594V59.9472C89.7368 41.8874 75.0947 27.2472 57.0348 27.2472C38.9753 27.2477 24.3353 41.8877 24.3348 59.9472V69.3594C24.3349 87.4193 38.975 102.059 57.0348 102.059V104.65C37.8487 104.65 22.2397 89.3401 21.7565 70.2703L21.7439 69.3594V59.9472C21.7444 40.4568 37.5444 24.6568 57.0348 24.6562C76.5256 24.6562 92.3277 40.4564 92.3282 59.9472V69.3594L92.3156 70.2703C91.8324 89.3404 76.2214 104.65 57.0348 104.65V102.059C75.095 102.059 89.7373 87.4196 89.7373 69.3594Z" fill="#BBBBBB"/>
<path d="M57 20C76.3295 20.0001 92 36.0796 92 55.9136V57.9816C92 59.6939 91.8773 61.3785 91.6514 63.0269C88.9578 62.8208 86.3016 62.2904 83.7324 61.4098C78.0807 59.4722 73.5234 56.073 70.2238 51.7122C65.7009 55.8895 59.7226 59.461 52.6502 61.8858C42.1633 65.4809 31.3274 65.8561 22.4222 63.5634C22.1457 61.7446 22 59.88 22 57.9816V55.9136C22 36.0795 37.6705 20 57 20Z" fill="#E2E2E2"/>
<path d="M72.2097 50.1304C75.2016 54.0844 79.3425 57.1861 84.5277 58.964C86.1189 59.5094 87.7518 59.9062 89.4102 60.168C89.4572 59.4441 89.4863 58.7153 89.4863 57.9816V55.9136C89.4863 37.7921 75.3928 23.0464 57.8395 22.5894L57 22.5793C39.0587 22.5793 24.5137 37.504 24.5137 55.9136V57.9816C24.5137 59.1519 24.5776 60.3079 24.6929 61.4475C32.78 63.1659 42.4381 62.6672 51.8524 59.44L53.1117 58.9917C59.3367 56.688 64.567 53.4669 68.5423 49.7954L70.5503 47.939L72.2097 50.1304ZM92 57.9816C92 59.6939 91.8773 61.3785 91.6514 63.0269C88.9578 62.8208 86.3016 62.2904 83.7324 61.4098C78.0807 59.4722 73.5234 56.073 70.2238 51.7122C65.7009 55.8895 59.7226 59.461 52.6502 61.8858C42.1633 65.4809 31.3274 65.8561 22.4222 63.5634C22.1457 61.7446 22 59.88 22 57.9816V55.9136C22 36.0795 37.6705 20 57 20C76.3295 20.0001 92 36.0796 92 55.9136V57.9816Z" fill="#BBBBBB"/>
<path d="M45.2715 69.3587C45.2715 68.0592 46.3249 67.0059 47.6243 67.0059C48.9237 67.0059 49.9771 68.0592 49.9771 69.3587V74.0642C49.9771 75.3636 48.9237 76.417 47.6243 76.417C46.3249 76.417 45.2715 75.3636 45.2715 74.0642V69.3587Z" fill="#8A8A8A"/>
<path d="M64.0947 69.3587C64.0947 68.0592 65.1481 67.0059 66.4475 67.0059C67.7469 67.0059 68.8003 68.0592 68.8003 69.3587V74.0642C68.8003 75.3636 67.7469 76.417 66.4475 76.417C65.1481 76.417 64.0947 75.3636 64.0947 74.0642V69.3587Z" fill="#8A8A8A"/>
<path d="M63.058 85.0505C63.4873 84.4781 64.2998 84.3606 64.8721 84.7899C65.4442 85.2191 65.5591 86.0317 65.1302 86.604C61.0829 92.0005 52.987 92.0005 48.9396 86.604C48.5111 86.0317 48.6281 85.2189 49.2002 84.7899C49.7726 84.3613 50.5853 84.4784 51.0144 85.0505C54.0256 89.0643 60.0472 89.0649 63.058 85.0505Z" fill="#8A8A8A"/>
<path d="M40.4371 111.597C41.1489 111.526 41.7827 112.044 41.854 112.756L43.9186 133.402L53.7281 122.705C54.2113 122.178 55.03 122.141 55.5574 122.624C56.0848 123.107 56.1218 123.928 55.6384 124.456L43.8731 137.289C43.5279 137.665 42.9937 137.804 42.5093 137.643C42.025 137.482 41.6797 137.05 41.6288 136.542L39.2783 113.014C39.2071 112.302 39.7253 111.669 40.4371 111.597Z" fill="#CCCCCC"/>
<path d="M73.634 111.597C72.9221 111.526 72.2884 112.044 72.2171 112.756L70.1524 133.402L60.3429 122.705C59.8598 122.178 59.0411 122.141 58.5136 122.624C57.9862 123.107 57.9492 123.928 58.4327 124.456L70.198 137.289C70.5431 137.665 71.0774 137.804 71.5617 137.643C72.0461 137.482 72.3914 137.05 72.4422 136.542L74.7928 113.014C74.864 112.302 74.3457 111.669 73.634 111.597Z" fill="#CCCCCC"/>
</g>
</svg>
