<svg width="54" height="54" viewBox="0 0 54 54" fill="none" xmlns="http://www.w3.org/2000/svg">
<circle cx="27" cy="27" r="21.5" fill="white" stroke="#DDDDDD"/>
<mask id="mask0_13873_27481" style="mask-type:alpha" maskUnits="userSpaceOnUse" x="6" y="6" width="43" height="43">
<circle cx="27.5501" cy="27.5496" r="20.95" fill="white" stroke="#DDDDDD"/>
</mask>
<g mask="url(#mask0_13873_27481)">
<path d="M8.16089 40.3662C15.0333 37.4485 20.1118 31.4232 21.8123 24.1357C22.3748 21.7248 21.317 19.2269 19.1941 17.9531L18.6228 17.6104C16.4509 16.3072 13.7312 16.335 11.5867 17.6826C9.43578 19.0344 8.61295 21.7986 9.64722 24.1279C11.4553 28.1992 11.4782 32.896 9.6687 36.9707L8.16089 40.3662Z" fill="#D9D9D9" stroke="#BBBBBB"/>
<path d="M45.4656 40.3662C38.5932 37.4485 33.5146 31.4232 31.8142 24.1357C31.2517 21.7248 32.3095 19.2269 34.4324 17.9531L35.0037 17.6104C37.1756 16.3072 39.8952 16.335 42.0398 17.6826C44.1907 19.0344 45.0135 21.7986 43.9792 24.1279C42.1711 28.1992 42.1483 32.896 43.9578 36.9707L45.4656 40.3662Z" fill="#D9D9D9" stroke="#BBBBBB"/>
<rect x="13.8923" y="15.0156" width="26.2429" height="29.8753" rx="13.1215" fill="#F2F2F2" stroke="#BBBBBB"/>
<mask id="path-6-inside-1_13873_27481" fill="white">
<path d="M26.7114 12.6992C34.4011 12.6993 40.6353 18.9333 40.6353 26.623V27.4248C40.6353 28.3273 40.5473 29.2098 40.3833 30.0645C35.2415 29.2132 28.4183 27.4553 25.3081 26.2168C26.0865 27.2374 26.4713 28.4402 24.98 28.9385C21.0746 30.2431 17.204 28.8068 13.7993 28.0996C13.4627 27.8191 13.1244 27.5872 12.7876 27.3926V26.623C12.7876 18.9333 19.0217 12.6992 26.7114 12.6992Z"/>
</mask>
<path d="M26.7114 12.6992C34.4011 12.6993 40.6353 18.9333 40.6353 26.623V27.4248C40.6353 28.3273 40.5473 29.2098 40.3833 30.0645C35.2415 29.2132 28.4183 27.4553 25.3081 26.2168C26.0865 27.2374 26.4713 28.4402 24.98 28.9385C21.0746 30.2431 17.204 28.8068 13.7993 28.0996C13.4627 27.8191 13.1244 27.5872 12.7876 27.3926V26.623C12.7876 18.9333 19.0217 12.6992 26.7114 12.6992Z" fill="#E2E2E2"/>
<path d="M26.7114 12.6992L26.7114 11.6992H26.7114V12.6992ZM40.3833 30.0645L40.22 31.051L41.1817 31.2102L41.3654 30.2529L40.3833 30.0645ZM25.3081 26.2168L25.6781 25.2878L22.3229 23.9516L24.513 26.8232L25.3081 26.2168ZM24.98 28.9385L25.2968 29.887L25.2969 29.8869L24.98 28.9385ZM13.7993 28.0996L13.1592 28.8679L13.3512 29.0279L13.5959 29.0787L13.7993 28.0996ZM12.7876 27.3926H11.7876V27.9696L12.2872 28.2584L12.7876 27.3926ZM26.7114 12.6992L26.7114 13.6992C33.8489 13.6993 39.6353 19.4856 39.6353 26.623H40.6353H41.6353C41.6353 18.381 34.9534 11.6993 26.7114 11.6992L26.7114 12.6992ZM40.6353 26.623H39.6353V27.4248H40.6353H41.6353V26.623H40.6353ZM40.6353 27.4248H39.6353C39.6353 28.2622 39.5537 29.0816 39.4012 29.876L40.3833 30.0645L41.3654 30.2529C41.541 29.338 41.6353 28.3924 41.6353 27.4248H40.6353ZM40.3833 30.0645L40.5466 29.0779C35.4452 28.2333 28.6981 26.4904 25.6781 25.2878L25.3081 26.2168L24.9381 27.1458C28.1385 28.4203 35.0378 30.1931 40.22 31.051L40.3833 30.0645ZM25.3081 26.2168L24.513 26.8232C24.6769 27.0382 24.8039 27.2421 24.8874 27.4226C24.9732 27.6078 24.9944 27.7278 24.9953 27.788C24.9956 27.814 24.9922 27.822 24.9932 27.8188C24.9947 27.8141 24.997 27.812 24.9937 27.816C24.9861 27.8253 24.915 27.9058 24.6631 27.99L24.98 28.9385L25.2969 29.8869C25.7906 29.722 26.2306 29.4653 26.546 29.0771C26.8729 28.6747 27.0016 28.2096 26.9951 27.7591C26.9832 26.935 26.5239 26.1619 26.1032 25.6104L25.3081 26.2168ZM24.98 28.9385L24.6631 27.99C22.9157 28.5737 21.1464 28.5561 19.3513 28.2847C17.4876 28.003 15.8313 27.5003 14.0027 27.1205L13.7993 28.0996L13.5959 29.0787C15.172 29.4061 17.1533 29.9752 19.0524 30.2623C21.0202 30.5597 23.1388 30.6079 25.2968 29.887L24.98 28.9385ZM13.7993 28.0996L14.4395 27.3314C14.0574 27.013 13.6721 26.7488 13.288 26.5268L12.7876 27.3926L12.2872 28.2584C12.5767 28.4257 12.868 28.6253 13.1592 28.8679L13.7993 28.0996ZM12.7876 27.3926H13.7876V26.623H12.7876H11.7876V27.3926H12.7876ZM12.7876 26.623H13.7876C13.7876 19.4856 19.574 13.6992 26.7114 13.6992V12.6992V11.6992C18.4694 11.6992 11.7876 18.381 11.7876 26.623H12.7876Z" fill="#BBBBBB" mask="url(#path-6-inside-1_13873_27481)"/>
<rect x="22.4736" y="30.8613" width="1.8162" height="3.63239" rx="0.908098" fill="#8A8A8A"/>
<rect x="29.7383" y="30.8613" width="1.8162" height="3.63239" rx="0.908098" fill="#8A8A8A"/>
<path d="M24.2896 38.126C25.6517 39.9422 28.376 39.9422 29.7381 38.126" stroke="#8A8A8A" stroke-linecap="round" stroke-linejoin="round"/>
<path d="M20.657 48.5693L21.5651 57.6503L26.1056 52.6971" stroke="#CCCCCC" stroke-linecap="round" stroke-linejoin="round"/>
<path d="M33.3704 48.5693L32.4623 57.6503L27.9218 52.6971" stroke="#CCCCCC" stroke-linecap="round" stroke-linejoin="round"/>
</g>
</svg>
