<svg width="140" height="140" viewBox="0 0 140 140" fill="none" xmlns="http://www.w3.org/2000/svg">
<path d="M72 49.3333C72 46.1037 73.9419 43.1909 76.9231 41.9487L78.4615 41.3077C81.0963 40.2099 84 42.1457 84 45V58H72V49.3333Z" fill="#178DDC"/>
<path d="M103.364 72.2946C104.839 73.9231 106.704 75.1507 108.783 75.8632L114.597 77.8555C118.359 79.1446 121.324 82.0845 122.645 85.8349L123.095 87.1141C124.898 92.2348 123.33 97.9371 119.161 101.415L116.725 103.447C114.555 105.257 111.855 106.312 109.032 106.45L90.5193 107.355C88.0247 107.477 85.5476 106.877 83.3846 105.628L33.2592 76.6883C26.656 72.876 24.7364 64.2252 29.1071 57.9776L44.5418 35.9137C44.2411 37.3318 44.1503 38.8059 44.2961 40.314C45.2586 50.2713 56.1304 57.9254 68.5795 57.4102C74.9515 57.1465 80.5003 54.7928 84.2714 51.2231L103.364 72.2946Z" fill="#E4E5E7"/>
<path d="M103.364 72.2949C104.84 73.9232 106.704 75.1508 108.783 75.8633L114.598 77.8555C118.359 79.1446 121.324 82.0846 122.645 85.835L123.095 87.1143C124.898 92.2349 123.33 97.9371 119.161 101.415L116.726 103.447C114.556 105.258 111.855 106.312 109.032 106.45L90.5195 107.354C88.0249 107.476 85.5478 106.877 83.3848 105.628L68.2998 96.9189L98.4014 66.8184L103.364 72.2949Z" fill="#178DDC"/>
<path d="M103.364 72.2949C103.484 72.4273 103.608 72.5556 103.733 72.6826C104.581 74.9533 103.994 77.609 102.062 79.2988L100.556 80.6152C98.0611 82.7963 94.2701 82.5424 92.0889 80.0479L71.9893 57.0596C76.9228 56.243 81.1906 54.139 84.2715 51.2227L103.364 72.2949Z" fill="#FCC22F"/>
<path d="M35.7166 48.5293C49.3666 54.3717 56.5514 68.4506 51.7957 80.2979C51.0134 82.2464 49.9542 84.0137 48.6716 85.5859L33.2595 76.6885C26.6564 72.8762 24.7365 64.2251 29.1072 57.9775L35.7166 48.5293Z" fill="#FCC22F"/>
<g filter="url(#filter0_i_15302_46917)">
<path d="M28.626 58.7178C29.6268 61.4922 31.5747 63.9505 34.3516 65.5537L88.9287 97.0635C90.9816 98.2487 93.3195 98.8503 95.6895 98.8027L115.629 98.4023C118.303 98.3486 120.889 97.4701 123.041 95.8965C122.272 97.9996 120.96 99.9146 119.161 101.415L116.726 103.447C114.556 105.257 111.855 106.311 109.032 106.449L90.5195 107.354C88.0249 107.476 85.5478 106.877 83.3848 105.628L33.2598 76.6885C26.9135 73.0244 24.8933 64.8915 28.626 58.7178Z" fill="#CBD4DC"/>
</g>
<rect x="85" y="57" width="9" height="3" rx="1.5" fill="#7F7F7F"/>
<rect x="90" y="63" width="9" height="3" rx="1.5" fill="#7F7F7F"/>
<rect x="95" y="69" width="9" height="3" rx="1.5" fill="#7F7F7F"/>
<defs>
<filter id="filter0_i_15302_46917" x="26.7577" y="58.7178" width="96.2833" height="48.6523" filterUnits="userSpaceOnUse" color-interpolation-filters="sRGB">
<feFlood flood-opacity="0" result="BackgroundImageFix"/>
<feBlend mode="normal" in="SourceGraphic" in2="BackgroundImageFix" result="shape"/>
<feColorMatrix in="SourceAlpha" type="matrix" values="0 0 0 0 0 0 0 0 0 0 0 0 0 0 0 0 0 0 127 0" result="hardAlpha"/>
<feOffset dy="-4"/>
<feComposite in2="hardAlpha" operator="arithmetic" k2="-1" k3="1"/>
<feColorMatrix type="matrix" values="0 0 0 0 0 0 0 0 0 0 0 0 0 0 0 0 0 0 0.2 0"/>
<feBlend mode="normal" in2="shape" result="effect1_innerShadow_15302_46917"/>
</filter>
</defs>
</svg>
