<svg width="70" height="57" viewBox="0 0 70 57" fill="none" xmlns="http://www.w3.org/2000/svg">
<path d="M11.7059 35.3535C11.7059 27.4915 18.0793 21.1182 25.9412 21.1182H53.7648C61.6267 21.1182 68.0001 27.4915 68.0001 35.3535C68.0001 43.2154 61.6267 49.5888 53.7648 49.5888H25.9412C18.0793 49.5888 11.7059 43.2154 11.7059 35.3535Z" fill="#AFEFD1"/>
<path d="M44.0588 0.412109C49.7765 0.412273 54.4118 5.04738 54.4118 10.765V27.5886C54.4118 33.3062 49.7765 37.9414 44.0588 37.9415H41.99C41.278 39.4853 41.1348 41.2393 41.602 42.888C41.732 43.3473 41.236 43.7309 40.8242 43.4895L39.7013 42.8305C37.6779 41.6434 35.9995 39.958 34.8224 37.9415L12.3529 37.9415C6.63517 37.9415 2 33.3064 2 27.5886L2 10.765C2 5.04728 6.63517 0.412109 12.3529 0.412109L44.0588 0.412109Z" fill="white"/>
<path d="M35.5655 36.6474L35.9403 37.2894C36.9475 39.0149 38.361 40.4719 40.0602 41.5338C39.9605 40.1191 40.2166 38.6962 40.8147 37.3994L41.1616 36.6474H44.0588V37.9415H41.99C41.278 39.4853 41.1348 41.2393 41.602 42.888C41.732 43.3473 41.236 43.7309 40.8242 43.4895L39.7013 42.8305C37.6779 41.6434 35.9995 39.958 34.8224 37.9415L12.3529 37.9415V36.6474L35.5655 36.6474ZM53.1176 27.5886V10.765C53.1176 5.84032 49.1875 1.83356 44.2926 1.70939L44.0588 1.70623L12.3529 1.70623C7.42806 1.70623 3.42129 5.63626 3.29728 10.5312L3.29412 10.765L3.29412 27.5886C3.29412 32.5916 7.34989 36.6474 12.3529 36.6474V37.9415C6.63517 37.9415 2 33.3064 2 27.5886L2 10.765C2 5.04728 6.63517 0.412109 12.3529 0.412109L44.0588 0.412109C49.7765 0.412273 54.4118 5.04738 54.4118 10.765V27.5886C54.4118 33.3062 49.7765 37.9414 44.0588 37.9415V36.6474C48.9836 36.6472 52.9905 32.7172 53.1145 27.8224L53.1176 27.5886Z" fill="#E9E9E9"/>
<rect width="28.4219" height="28.4219" transform="translate(14.396 6.09766)" fill="white"/>
<path d="M40.5679 16.8743C40.4494 12.8479 37.252 9.65039 33.2255 9.65039C31.9229 9.65039 29.9097 10.5978 29.0807 12.1373C28.9623 12.4926 28.4886 12.4926 28.3701 12.1373C27.4227 10.7162 25.5279 9.76882 24.1069 9.76882C20.1988 9.76882 16.883 12.9663 16.7645 16.8743V17.1111C16.7645 19.1244 17.5935 21.0191 19.0146 22.4402C19.0146 22.4402 19.0146 22.4402 19.0146 22.5587C19.133 22.6771 24.8174 27.6509 27.4227 29.901C28.1333 30.4931 29.1991 30.4931 29.9097 29.901C32.515 27.6509 38.081 22.6771 38.3178 22.5587C38.3178 22.5587 38.3178 22.5587 38.3178 22.4402C39.7389 21.1376 40.5679 19.2428 40.5679 17.1111V16.8743Z" fill="#E3FBF1"/>
<path d="M39.2738 16.9001C39.1692 13.5573 36.5261 10.9445 33.2253 10.9445C32.8464 10.9446 32.2337 11.0967 31.6058 11.4469C31.0054 11.7817 30.5191 12.2266 30.2472 12.7024C29.6803 14.002 27.8581 14.0286 27.24 12.7821C26.9045 12.3109 26.3944 11.8781 25.8025 11.5593C25.1737 11.2208 24.5551 11.0627 24.1071 11.0627C20.8981 11.0627 18.1619 13.7026 18.0586 16.902V17.1112C18.0586 18.7623 18.7377 20.3329 19.9297 21.5249L20.3088 21.9041V21.9767C20.454 22.1046 20.6397 22.2689 20.8655 22.4671C21.4549 22.9844 22.2575 23.6869 23.1378 24.4563C24.8912 25.9887 26.9505 27.7833 28.251 28.9067C28.4817 29.0989 28.8507 29.0989 29.0813 28.9067C30.3783 27.7862 32.4029 25.9957 34.146 24.4594C35.019 23.6899 35.8219 22.984 36.4214 22.4627C36.6523 22.2618 36.8565 22.087 37.0236 21.9445V21.8712L37.4432 21.4864C38.5811 20.4433 39.2738 18.902 39.2738 17.1112V16.9001ZM40.5584 17.508C40.4621 19.4773 39.65 21.2193 38.3177 22.4405V22.5587C38.0803 22.6776 32.515 27.6514 29.9098 29.9013L29.7726 30.0049C29.1144 30.4585 28.218 30.4585 27.5598 30.0049L27.4226 29.9013C24.8178 27.6517 19.1353 22.6791 19.0147 22.5587V22.4405C17.6824 21.1083 16.8703 19.3594 16.774 17.4871L16.7645 17.1112V16.8742C16.883 12.9662 20.1991 9.76855 24.1071 9.76855L24.2417 9.77171C25.6457 9.82875 27.4521 10.7609 28.3698 12.1375C28.4809 12.4705 28.9042 12.491 29.0542 12.1994L29.0807 12.1375C29.9096 10.5981 31.9226 9.65048 33.2253 9.65039C37.2517 9.65039 40.4494 12.8478 40.5679 16.8742V17.1112L40.5584 17.508Z" fill="#79E2C1"/>
</svg>
