<svg width="24" height="24" viewBox="0 0 24 24" fill="none" xmlns="http://www.w3.org/2000/svg">
<circle cx="12" cy="11.9996" r="11.0999" fill="white" stroke="#DDDDDD" stroke-width="0.6"/>
<mask id="mask0_13873_27542" style="mask-type:alpha" maskUnits="userSpaceOnUse" x="1" y="1" width="23" height="23">
<circle cx="12.2849" cy="12.2849" r="10.8149" fill="white" stroke="#DDDDDD" stroke-width="0.6"/>
</mask>
<g mask="url(#mask0_13873_27542)">
<rect x="5.24873" y="5.83125" width="13.5167" height="15.399" rx="6.75836" fill="#F2F2F2" stroke="#BBBBBB" stroke-width="0.6"/>
<mask id="path-4-inside-1_13873_27542" fill="white">
<path d="M11.8503 4.58984C15.8349 4.58984 19.065 7.82015 19.0652 11.8047V12.2207C19.0652 12.3406 19.0622 12.4597 19.0564 12.5781C17.8295 12.9721 15.7464 13.1396 12.2849 13.1396C7.71857 13.1396 5.57541 12.9893 4.64819 12.6426C4.64014 12.503 4.6355 12.3623 4.6355 12.2207V11.8047C4.63565 7.82024 7.86589 4.58999 11.8503 4.58984Z"/>
</mask>
<path d="M11.8503 4.58984C15.8349 4.58984 19.065 7.82015 19.0652 11.8047V12.2207C19.0652 12.3406 19.0622 12.4597 19.0564 12.5781C17.8295 12.9721 15.7464 13.1396 12.2849 13.1396C7.71857 13.1396 5.57541 12.9893 4.64819 12.6426C4.64014 12.503 4.6355 12.3623 4.6355 12.2207V11.8047C4.63565 7.82024 7.86589 4.58999 11.8503 4.58984Z" fill="#E2E2E2"/>
<path d="M11.8503 4.58984V3.98984H11.8503L11.8503 4.58984ZM19.0652 11.8047H19.6652V11.8047L19.0652 11.8047ZM19.0652 12.2207L19.6652 12.2207V12.2207H19.0652ZM19.0564 12.5781L19.2398 13.1494L19.6354 13.0224L19.6557 12.6074L19.0564 12.5781ZM12.2849 13.1396L12.2849 13.7396H12.2849L12.2849 13.1396ZM4.64819 12.6426L4.04919 12.6771L4.07171 13.0676L4.43804 13.2046L4.64819 12.6426ZM4.6355 12.2207H4.0355V12.2207L4.6355 12.2207ZM4.6355 11.8047L4.0355 11.8047V11.8047H4.6355ZM11.8503 4.58984V5.18984C15.5035 5.18984 18.465 8.15151 18.4652 11.8047L19.0652 11.8047L19.6652 11.8047C19.665 7.4888 16.1663 3.98984 11.8503 3.98984V4.58984ZM19.0652 11.8047H18.4652V12.2207H19.0652H19.6652V11.8047H19.0652ZM19.0652 12.2207L18.4652 12.2207C18.4652 12.3305 18.4624 12.4399 18.4571 12.5489L19.0564 12.5781L19.6557 12.6074C19.6619 12.4795 19.6652 12.3506 19.6652 12.2207L19.0652 12.2207ZM19.0564 12.5781L18.873 12.0069C17.7485 12.3679 15.7572 12.5396 12.2849 12.5396L12.2849 13.1396L12.2849 13.7396C15.7356 13.7396 17.9104 13.5763 19.2398 13.1494L19.0564 12.5781ZM12.2849 13.1396L12.2849 12.5396C10.0054 12.5396 8.34386 12.502 7.14151 12.4224C5.92233 12.3417 5.23237 12.2205 4.85835 12.0806L4.64819 12.6426L4.43804 13.2046C4.99123 13.4114 5.83647 13.5387 7.06225 13.6198C8.30487 13.7021 9.99805 13.7396 12.2849 13.7396L12.2849 13.1396ZM4.64819 12.6426L5.2472 12.608C5.23971 12.4783 5.2355 12.3492 5.2355 12.2207L4.6355 12.2207L4.0355 12.2207C4.0355 12.3754 4.04057 12.5277 4.04919 12.6771L4.64819 12.6426ZM4.6355 12.2207H5.2355V11.8047H4.6355H4.0355V12.2207H4.6355ZM4.6355 11.8047L5.2355 11.8047C5.23564 8.15162 8.19727 5.18998 11.8504 5.18984L11.8503 4.58984L11.8503 3.98984C7.53452 3.99 4.03567 7.48887 4.0355 11.8047L4.6355 11.8047Z" fill="#BBBBBB" mask="url(#path-4-inside-1_13873_27542)"/>
<rect x="9.6543" y="14.001" width="0.941115" height="1.88223" rx="0.470558" fill="#8A8A8A"/>
<rect x="13.4189" y="14.001" width="0.941115" height="1.88223" rx="0.470558" fill="#8A8A8A"/>
<path d="M10.5957 17.7656C11.3015 18.7067 12.7132 18.7067 13.419 17.7656" stroke="#8A8A8A" stroke-width="0.6" stroke-linecap="round" stroke-linejoin="round"/>
<path d="M8.71338 23.1777L9.18394 27.8833L11.5367 25.3166" stroke="#CCCCCC" stroke-width="0.6" stroke-linecap="round" stroke-linejoin="round"/>
<path d="M15.301 23.1777L14.8305 27.8833L12.4777 25.3166" stroke="#CCCCCC" stroke-width="0.6" stroke-linecap="round" stroke-linejoin="round"/>
<path d="M8.86523 11.7295C10.3462 11.7295 11.6787 11.8567 12.6328 12.0576C13.112 12.1585 13.4798 12.2747 13.7207 12.3945C13.8417 12.4547 13.9156 12.5082 13.9551 12.5488C13.9625 12.5565 13.9667 12.5642 13.9707 12.5693C13.9666 12.5746 13.9628 12.5829 13.9551 12.5908C13.9155 12.6314 13.8415 12.685 13.7207 12.7451C13.4798 12.865 13.1119 12.9811 12.6328 13.082C11.6787 13.2829 10.3462 13.4102 8.86523 13.4102C7.38426 13.4102 6.05179 13.2829 5.09766 13.082C4.61857 12.9812 4.25066 12.8649 4.00977 12.7451C3.88903 12.685 3.81495 12.6314 3.77539 12.5908C3.7675 12.5827 3.76288 12.5746 3.75879 12.5693C3.76286 12.5641 3.76772 12.5567 3.77539 12.5488C3.81492 12.5082 3.88888 12.4547 4.00977 12.3945C4.25065 12.2747 4.61852 12.1585 5.09766 12.0576C6.05179 11.8567 7.38426 11.7295 8.86523 11.7295Z" fill="#D9D9D9" stroke="#ADADAD" stroke-width="0.6"/>
<path d="M11.9995 4.88965C12.2555 4.88965 12.4759 4.96806 12.6255 5.08008C12.775 5.19218 12.8403 5.32481 12.8403 5.44531C12.8402 5.56569 12.7748 5.69761 12.6255 5.80957C12.4759 5.92159 12.2555 6 11.9995 6C11.7435 5.99993 11.523 5.92169 11.3735 5.80957C11.2243 5.69762 11.1598 5.56567 11.1597 5.44531C11.1597 5.32482 11.2241 5.19217 11.3735 5.08008C11.523 4.96796 11.7435 4.88972 11.9995 4.88965Z" fill="#D9D9D9" stroke="#ADADAD" stroke-width="0.6"/>
</g>
</svg>
