<svg width="84" height="32" viewBox="0 0 84 32" fill="none" xmlns="http://www.w3.org/2000/svg">
<path d="M60.3418 16.7843C60.0673 16.7843 59.9301 16.6536 59.9301 16.3922V11.9216C59.9301 11.6601 60.0673 11.5294 60.3418 11.5294H63.7732V10.3922H60.3026C60.0281 10.3922 59.8909 10.2614 59.8909 10V8.58824C59.8909 8.3268 60.0281 8.19608 60.3026 8.19608H66.6164C66.8909 8.19608 67.0281 8.3268 67.0281 8.58824V13C67.0281 13.2614 66.8909 13.3922 66.6164 13.3922H63.1458V14.5882H64.1458C65.0739 14.5882 65.832 14.5621 66.4203 14.5098C67.0216 14.4575 67.5706 14.3529 68.0673 14.1961V8.47059C68.0673 8.19608 68.1981 8.05882 68.4595 8.05882H70.7144C70.9758 8.05882 71.1065 8.19608 71.1065 8.47059V10.9608H72.1654V8.41177C72.1654 8.13726 72.2961 8 72.5575 8H74.832C75.0935 8 75.2242 8.13726 75.2242 8.41177V16.549C75.2242 16.8105 75.0935 16.9412 74.832 16.9412H72.5575C72.2961 16.9412 72.1654 16.8105 72.1654 16.549V13.902H71.1065V16.451C71.1065 16.7124 70.9758 16.8431 70.7144 16.8431H68.4595C68.1981 16.8431 68.0673 16.7124 68.0673 16.451V16.2157C67.6229 16.3987 67.0543 16.5425 66.3615 16.6471C65.6686 16.7386 64.7994 16.7843 63.7536 16.7843H60.3418ZM60.4987 18.3922C60.4987 18.1176 60.6294 17.9804 60.8909 17.9804H74.8124C75.0869 17.9804 75.2242 18.1111 75.2242 18.3725V23.5098C75.2242 23.7712 75.0869 23.902 74.8124 23.902H60.9105C60.636 23.902 60.4987 23.7712 60.4987 23.5098V18.3922ZM64.2046 20.1765V21.7255H71.4987V20.1765H64.2046Z" fill="#00BB86"/>
<path d="M43.5809 23.902C43.3195 23.902 43.1888 23.7712 43.1888 23.5098V19.8235C43.1888 19.549 43.3195 19.4118 43.5809 19.4118H53.5809V18.5882H43.5809C43.3195 18.5882 43.1888 18.4575 43.1888 18.1961V16.9804C43.1888 16.719 43.3195 16.5882 43.5809 16.5882H57.0515C57.313 16.5882 57.4437 16.719 57.4437 16.9804V20.6078C57.4437 20.8693 57.313 21 57.0515 21H47.0711V21.8824H57.228C57.4894 21.8824 57.6201 22.0131 57.6201 22.2745V23.5098C57.6201 23.7712 57.4894 23.902 57.228 23.902H43.5809ZM45.9927 11.2157C46.2803 11.2157 46.4175 11.3529 46.4045 11.6275L46.228 12.8039H47.9339C49.0319 12.8039 50.0973 12.7516 51.13 12.6471C52.1757 12.5425 53.0711 12.3464 53.8162 12.0588V8.41177C53.8162 8.13726 53.9535 8 54.228 8H57.0319C57.3064 8 57.4437 8.13726 57.4437 8.41177V10.0588H58.3652C58.6267 10.0588 58.7574 10.1961 58.7574 10.4706V12.7843C58.7574 13.0458 58.6267 13.1765 58.3652 13.1765H57.4437V15.1961C57.4437 15.4575 57.3064 15.5882 57.0319 15.5882H54.228C53.9535 15.5882 53.8162 15.4575 53.8162 15.1961V14.2941C53.1626 14.6078 52.2868 14.8497 51.1888 15.0196C50.1038 15.1765 48.8881 15.2549 47.5417 15.2549H43.0319C42.9012 15.2549 42.7966 15.2222 42.7182 15.1569C42.6398 15.0915 42.6071 14.9869 42.6202 14.8431L43.0907 11.5882C43.1169 11.3399 43.2541 11.2157 43.5025 11.2157H45.9927ZM42.4241 8.58824C42.4241 8.3268 42.5613 8.19608 42.8358 8.19608H51.9339C52.2084 8.19608 52.3456 8.3268 52.3456 8.58824V10.2353C52.3456 10.4967 52.2084 10.6275 51.9339 10.6275H42.8358C42.5613 10.6275 42.4241 10.4967 42.4241 10.2353V8.58824Z" fill="#00BB86"/>
<path d="M28.6434 11.902C28.9179 11.902 29.0552 12.0327 29.0552 12.2941V18.2745C29.0552 19.2549 29.1532 19.9477 29.3493 20.3529C29.5584 20.7451 29.8983 20.9412 30.3689 20.9412C30.8525 20.9412 31.1924 20.7451 31.3885 20.3529C31.5976 19.9477 31.7022 19.2549 31.7022 18.2745V14.6667C31.7022 14.1046 31.6565 13.6144 31.565 13.1961C31.4865 12.7647 31.3427 12.4118 31.1336 12.1373C30.9375 11.8497 30.663 11.6405 30.3101 11.5098C29.9571 11.366 29.5192 11.2941 28.9963 11.2941H25.4081C25.1336 11.2941 24.9963 11.1634 24.9963 10.902V8.76471C24.9963 8.50327 25.1336 8.37255 25.4081 8.37255H28.8983C31.1467 8.37255 32.7806 8.88235 33.8003 9.90196C34.8329 10.9085 35.3493 12.5359 35.3493 14.7843V18.1373C35.3493 19.2484 35.2316 20.1765 34.9963 20.9216C34.761 21.6536 34.4277 22.2418 33.9963 22.6863C33.565 23.1307 33.0421 23.4444 32.4277 23.6275C31.8133 23.8105 31.1271 23.902 30.3689 23.902C29.6238 23.902 28.944 23.8105 28.3297 23.6275C27.7153 23.4444 27.1924 23.1307 26.761 22.6863C26.3297 22.2418 25.9963 21.6536 25.761 20.9216C25.5257 20.1765 25.4081 19.2484 25.4081 18.1373V12.2941C25.4081 12.0327 25.5388 11.902 25.8003 11.902H28.6434ZM37.2708 24C37.0094 24 36.8787 23.8693 36.8787 23.6078V8.41177C36.8787 8.13726 37.0094 8 37.2708 8H40.114C40.3754 8 40.5061 8.13726 40.5061 8.41177V23.6078C40.5061 23.8693 40.3754 24 40.114 24H37.2708Z" fill="#00BB86"/>
<path d="M19.6078 15.5882C19.3333 15.5882 19.1961 15.4575 19.1961 15.1961V8.41177C19.1961 8.13726 19.3333 8 19.6078 8H22.4118C22.6863 8 22.8235 8.13726 22.8235 8.41177V10.0588H23.7451C24.0065 10.0588 24.1372 10.1961 24.1372 10.4706V12.7843C24.1372 13.0458 24.0065 13.1765 23.7451 13.1765H22.8235V15.1961C22.8235 15.4575 22.6863 15.5882 22.4118 15.5882H19.6078ZM8.68627 15.6078C8.42484 15.634 8.29412 15.5033 8.29412 15.2157V13.3529C8.29412 13.0915 8.42484 12.9608 8.68627 12.9608C9.35294 12.9346 9.98039 12.8693 10.5686 12.7647C11.1699 12.6601 11.6993 12.5163 12.1569 12.3333C12.6274 12.1373 13.0196 11.915 13.3333 11.6667C13.6471 11.4052 13.8627 11.1111 13.9804 10.7843H8.39216C8.13072 10.7843 8 10.6536 8 10.3922V8.58824C8 8.3268 8.13072 8.19608 8.39216 8.19608H17.5098C17.7843 8.19608 17.9216 8.33333 17.9216 8.60784V9.92157C17.9216 10.6536 17.7843 11.3007 17.5098 11.8627C17.2353 12.4248 16.8627 12.915 16.3922 13.3333C15.9346 13.7386 15.3987 14.085 14.7843 14.3725C14.1699 14.6471 13.5229 14.8758 12.8431 15.0588C12.1634 15.2288 11.464 15.3595 10.7451 15.451C10.0261 15.5294 9.33987 15.5817 8.68627 15.6078ZM12.2745 19.4118H22.2941C22.5555 19.4118 22.6863 19.5425 22.6863 19.8039V20.6078C22.6863 20.8693 22.5555 21 22.2941 21H12.2745V21.8627H22.6078C22.8693 21.8627 23 21.9935 23 22.2549V23.5098C23 23.7712 22.8693 23.902 22.6078 23.902H8.96078C8.69935 23.902 8.56863 23.7712 8.56863 23.5098V16.9804C8.56863 16.719 8.69935 16.5882 8.96078 16.5882H22.4314C22.6928 16.5882 22.8235 16.719 22.8235 16.9804V18.1765C22.8235 18.4379 22.6928 18.5686 22.4314 18.5686H12.2745V19.4118Z" fill="#00BB86"/>
</svg>
