<svg width="54" height="54" viewBox="0 0 54 54" fill="none" xmlns="http://www.w3.org/2000/svg">
<circle cx="27" cy="27" r="21.5" fill="white" stroke="#DDDDDD"/>
<mask id="mask0_13873_27522" style="mask-type:alpha" maskUnits="userSpaceOnUse" x="6" y="6" width="43" height="43">
<circle cx="27.5501" cy="27.5496" r="20.95" fill="white" stroke="#DDDDDD"/>
</mask>
<g mask="url(#mask0_13873_27522)">
<rect x="13.8923" y="15.0156" width="26.2429" height="29.8753" rx="13.1215" fill="#F2F2F2" stroke="#BBBBBB"/>
<mask id="path-4-inside-1_13873_27522" fill="white">
<path d="M26.7114 12.6992C34.4011 12.6993 40.6353 18.9333 40.6353 26.623V27.4248C40.6353 27.6562 40.6279 27.8866 40.6167 28.1152C38.2487 28.8753 34.2292 29.1992 27.5503 29.1992C18.7387 29.1992 14.6018 28.9113 12.812 28.2422C12.7964 27.9718 12.7876 27.6991 12.7876 27.4248V26.623C12.7876 18.9333 19.0217 12.6992 26.7114 12.6992Z"/>
</mask>
<path d="M26.7114 12.6992C34.4011 12.6993 40.6353 18.9333 40.6353 26.623V27.4248C40.6353 27.6562 40.6279 27.8866 40.6167 28.1152C38.2487 28.8753 34.2292 29.1992 27.5503 29.1992C18.7387 29.1992 14.6018 28.9113 12.812 28.2422C12.7964 27.9718 12.7876 27.6991 12.7876 27.4248V26.623C12.7876 18.9333 19.0217 12.6992 26.7114 12.6992Z" fill="#E2E2E2"/>
<path d="M26.7114 12.6992L26.7114 11.6992H26.7114V12.6992ZM40.6167 28.1152L40.9223 29.0674L41.5817 28.8557L41.6155 28.164L40.6167 28.1152ZM27.5503 29.1992V30.1992H27.5503L27.5503 29.1992ZM12.812 28.2422L11.8137 28.3L11.8513 28.9506L12.4618 29.1789L12.812 28.2422ZM26.7114 12.6992L26.7114 13.6992C33.8489 13.6993 39.6353 19.4856 39.6353 26.623H40.6353H41.6353C41.6353 18.381 34.9534 11.6993 26.7114 11.6992L26.7114 12.6992ZM40.6353 26.623H39.6353V27.4248H40.6353H41.6353V26.623H40.6353ZM40.6353 27.4248H39.6353C39.6353 27.6353 39.6285 27.8486 39.6179 28.0665L40.6167 28.1152L41.6155 28.164C41.6272 27.9245 41.6353 27.6771 41.6353 27.4248H40.6353ZM40.6167 28.1152L40.3111 27.1631C38.1138 27.8684 34.247 28.1992 27.5503 28.1992L27.5503 29.1992L27.5503 30.1992C34.2113 30.1992 38.3837 29.8822 40.9223 29.0674L40.6167 28.1152ZM27.5503 29.1992V28.1992C23.1506 28.1992 19.9397 28.1272 17.6138 27.9738C15.2597 27.8185 13.9076 27.5842 13.1622 27.3055L12.812 28.2422L12.4618 29.1789C13.5062 29.5693 15.1174 29.8135 17.4822 29.9694C19.875 30.1273 23.1384 30.1992 27.5503 30.1992V29.1992ZM12.812 28.2422L13.8103 28.1844C13.7957 27.9312 13.7876 27.6778 13.7876 27.4248H12.7876H11.7876C11.7876 27.7203 11.797 28.0125 11.8137 28.3L12.812 28.2422ZM12.7876 27.4248H13.7876V26.623H12.7876H11.7876V27.4248H12.7876ZM12.7876 26.623H13.7876C13.7876 19.4856 19.574 13.6992 26.7114 13.6992V12.6992V11.6992C18.4694 11.6992 11.7876 18.381 11.7876 26.623H12.7876Z" fill="#BBBBBB" mask="url(#path-4-inside-1_13873_27522)"/>
<rect x="22.4736" y="30.8613" width="1.8162" height="3.63239" rx="0.908098" fill="#8A8A8A"/>
<rect x="29.7383" y="30.8613" width="1.8162" height="3.63239" rx="0.908098" fill="#8A8A8A"/>
<path d="M24.2896 38.126C25.6517 39.9422 28.376 39.9422 29.7381 38.126" stroke="#8A8A8A" stroke-linecap="round" stroke-linejoin="round"/>
<path d="M20.657 48.5693L21.5651 57.6503L26.1056 52.6971" stroke="#CCCCCC" stroke-linecap="round" stroke-linejoin="round"/>
<path d="M33.3704 48.5693L32.4623 57.6503L27.9218 52.6971" stroke="#CCCCCC" stroke-linecap="round" stroke-linejoin="round"/>
<path d="M20.9502 26.3994C23.8119 26.3994 26.3883 26.6441 28.2363 27.0332C29.1644 27.2286 29.8828 27.4547 30.3564 27.6904C30.594 27.8087 30.7443 27.9177 30.8291 28.0049C30.9117 28.0899 30.9005 28.1198 30.9004 28.0996C30.9004 28.079 30.9121 28.1089 30.8291 28.1943C30.7443 28.2815 30.5939 28.3896 30.3564 28.5078C29.8828 28.7436 29.1645 28.9706 28.2363 29.166C26.3883 29.5551 23.8119 29.7998 20.9502 29.7998C18.0886 29.7998 15.5121 29.555 13.6641 29.166C12.7359 28.9706 12.0176 28.7436 11.5439 28.5078C11.3065 28.3896 11.1561 28.2815 11.0713 28.1943C10.9883 28.1089 11 28.079 11 28.0996C10.9999 28.1198 10.9885 28.09 11.0713 28.0049C11.1561 27.9176 11.3062 27.8087 11.5439 27.6904C12.0176 27.4547 12.7359 27.2286 13.6641 27.0332C15.5122 26.6442 18.0885 26.3994 20.9502 26.3994Z" fill="#D9D9D9" stroke="#ADADAD"/>
<path d="M27.0002 13.1992C27.51 13.1993 27.9526 13.3544 28.2561 13.582C28.5595 13.8096 28.7004 14.0867 28.7004 14.3496C28.7003 14.6124 28.5593 14.8888 28.2561 15.1162C27.9526 15.3439 27.51 15.499 27.0002 15.499C26.4905 15.499 26.0479 15.3438 25.7444 15.1162C25.4411 14.8888 25.3002 14.6125 25.3 14.3496C25.3 14.0866 25.441 13.8096 25.7444 13.582C26.0479 13.3544 26.4906 13.1992 27.0002 13.1992Z" fill="#D9D9D9" stroke="#ADADAD"/>
</g>
</svg>
