<svg width="24" height="24" viewBox="0 0 24 24" fill="none" xmlns="http://www.w3.org/2000/svg">
<circle cx="12.0001" cy="11.9996" r="11.1" fill="white" stroke="#DDDDDD" stroke-width="0.6"/>
<mask id="mask0_13873_27501" style="mask-type:alpha" maskUnits="userSpaceOnUse" x="1" y="1" width="23" height="23">
<circle cx="12.2849" cy="12.2849" r="10.815" fill="white" stroke="#DDDDDD" stroke-width="0.6"/>
</mask>
<g mask="url(#mask0_13873_27501)">
<path d="M2.31689 18.8486C5.81776 17.3269 8.40169 14.2366 9.27197 10.5068C9.55921 9.27499 9.01872 7.99849 7.93408 7.34766L7.63818 7.16992C6.52599 6.50261 5.13288 6.51698 4.03467 7.20703C2.93756 7.89652 2.51745 9.30729 3.04541 10.4961C3.98699 12.6162 3.99861 15.0624 3.05615 17.1846L2.31689 18.8486Z" fill="#D9D9D9" stroke="#BBBBBB" stroke-width="0.6"/>
<path d="M21.4893 18.8486C17.9884 17.3269 15.4045 14.2366 14.5342 10.5068C14.2469 9.27499 14.7874 7.99849 15.8721 7.34766L16.168 7.16992C17.2802 6.50261 18.6733 6.51698 19.7715 7.20703C20.8686 7.89652 21.2887 9.30729 20.7607 10.4961C19.8192 12.6162 19.8075 15.0624 20.75 17.1846L21.4893 18.8486Z" fill="#D9D9D9" stroke="#BBBBBB" stroke-width="0.6"/>
<rect x="5.24873" y="5.83125" width="13.5168" height="15.399" rx="6.7584" fill="#F2F2F2" stroke="#BBBBBB" stroke-width="0.6"/>
<mask id="path-6-inside-1_13873_27501" fill="white">
<path d="M11.8501 4.58984C15.8347 4.58984 19.0648 7.82015 19.0649 11.8047V12.2207C19.0649 12.6883 19.0181 13.145 18.9331 13.5879C16.2693 13.1468 12.7351 12.2373 11.1235 11.5957C11.5265 12.1244 11.725 12.7468 10.9526 13.0049C8.92914 13.6806 6.92374 12.9368 5.15967 12.5703C4.98508 12.4248 4.80995 12.3041 4.63525 12.2031V11.8047C4.63543 7.82025 7.86566 4.59001 11.8501 4.58984Z"/>
</mask>
<path d="M11.8501 4.58984C15.8347 4.58984 19.0648 7.82015 19.0649 11.8047V12.2207C19.0649 12.6883 19.0181 13.145 18.9331 13.5879C16.2693 13.1468 12.7351 12.2373 11.1235 11.5957C11.5265 12.1244 11.725 12.7468 10.9526 13.0049C8.92914 13.6806 6.92374 12.9368 5.15967 12.5703C4.98508 12.4248 4.80995 12.3041 4.63525 12.2031V11.8047C4.63543 7.82025 7.86566 4.59001 11.8501 4.58984Z" fill="#E2E2E2"/>
<path d="M11.8501 4.58984V3.98984H11.8501L11.8501 4.58984ZM19.0649 11.8047H19.6649V11.8047L19.0649 11.8047ZM19.0649 12.2207L19.6649 12.2207V12.2207H19.0649ZM18.9331 13.5879L18.8351 14.1798L19.4121 14.2754L19.5224 13.701L18.9331 13.5879ZM11.1235 11.5957L11.3455 11.0383L9.33375 10.2373L10.6463 11.9594L11.1235 11.5957ZM10.9526 13.0049L11.1427 13.574L11.1428 13.574L10.9526 13.0049ZM5.15967 12.5703L4.77556 13.0312L4.89078 13.1273L5.03764 13.1578L5.15967 12.5703ZM4.63525 12.2031H4.03525V12.5494L4.33508 12.7226L4.63525 12.2031ZM4.63525 11.8047L4.03525 11.8047V11.8047H4.63525ZM11.8501 4.58984V5.18984C15.5033 5.18984 18.4648 8.1515 18.4649 11.8047L19.0649 11.8047L19.6649 11.8047C19.6647 7.4888 16.1661 3.98984 11.8501 3.98984V4.58984ZM19.0649 11.8047H18.4649V12.2207H19.0649H19.6649V11.8047H19.0649ZM19.0649 12.2207L18.4649 12.2207C18.4649 12.6481 18.4221 13.0669 18.3439 13.4748L18.9331 13.5879L19.5224 13.701C19.614 13.2231 19.6649 12.7285 19.6649 12.2207L19.0649 12.2207ZM18.9331 13.5879L19.0311 12.996C16.3914 12.5588 12.9029 11.6583 11.3455 11.0383L11.1235 11.5957L10.9016 12.1531C12.5673 12.8164 16.1472 13.7347 18.8351 14.1798L18.9331 13.5879ZM11.1235 11.5957L10.6463 11.9594C10.7287 12.0675 10.7908 12.1679 10.8308 12.2544C10.8721 12.3438 10.8787 12.3941 10.8789 12.4099C10.879 12.4136 10.8809 12.3906 10.8964 12.3715C10.905 12.361 10.8832 12.3955 10.7625 12.4358L10.9526 13.0049L11.1428 13.574C11.4083 13.4852 11.6513 13.3452 11.8273 13.1288C12.0102 12.9039 12.0822 12.6439 12.0788 12.3936C12.0726 11.9394 11.8211 11.5211 11.6007 11.232L11.1235 11.5957ZM10.9526 13.0049L10.7626 12.4358C9.87398 12.7325 8.9715 12.7246 8.04852 12.5852C7.08441 12.4395 6.23936 12.1818 5.2817 11.9829L5.15967 12.5703L5.03764 13.1578C5.84404 13.3253 6.88374 13.6228 7.86922 13.7717C8.89582 13.9268 10.0078 13.953 11.1427 13.574L10.9526 13.0049ZM5.15967 12.5703L5.54378 12.1094C5.34277 11.9419 5.13953 11.8015 4.93542 11.6836L4.63525 12.2031L4.33508 12.7226C4.48037 12.8066 4.6274 12.9078 4.77556 13.0312L5.15967 12.5703ZM4.63525 12.2031H5.23525V11.8047H4.63525H4.03525V12.2031H4.63525ZM4.63525 11.8047L5.23525 11.8047C5.23541 8.15162 8.19703 5.19 11.8501 5.18984L11.8501 4.58984L11.8501 3.98984C7.53428 3.99002 4.03544 7.48887 4.03525 11.8047L4.63525 11.8047Z" fill="#BBBBBB" mask="url(#path-6-inside-1_13873_27501)"/>
<rect x="9.6543" y="14.002" width="0.94112" height="1.88224" rx="0.47056" fill="#8A8A8A"/>
<rect x="13.4189" y="14.002" width="0.94112" height="1.88224" rx="0.47056" fill="#8A8A8A"/>
<path d="M10.5957 17.7656C11.3015 18.7067 12.7132 18.7067 13.4191 17.7656" stroke="#8A8A8A" stroke-width="0.6" stroke-linecap="round" stroke-linejoin="round"/>
<path d="M8.71338 23.1777L9.18394 27.8833L11.5367 25.3166" stroke="#CCCCCC" stroke-width="0.6" stroke-linecap="round" stroke-linejoin="round"/>
<path d="M15.301 23.1777L14.8305 27.8833L12.4777 25.3166" stroke="#CCCCCC" stroke-width="0.6" stroke-linecap="round" stroke-linejoin="round"/>
</g>
</svg>
