<svg width="112" height="39" viewBox="0 0 112 39" fill="none" xmlns="http://www.w3.org/2000/svg">
<path d="M82.7441 20.544C82.3521 20.544 82.1561 20.3573 82.1561 19.984V13.6C82.1561 13.2267 82.3521 13.04 82.7441 13.04H87.6441V11.416H82.6881C82.2961 11.416 82.1001 11.2293 82.1001 10.856V8.84C82.1001 8.46667 82.2961 8.28 82.6881 8.28H91.7041C92.0961 8.28 92.2921 8.46667 92.2921 8.84V15.14C92.2921 15.5133 92.0961 15.7 91.7041 15.7H86.7481V17.408H88.1761C89.5014 17.408 90.5841 17.3707 91.4241 17.296C92.2828 17.2213 93.0668 17.072 93.7761 16.848V8.672C93.7761 8.28 93.9628 8.084 94.3361 8.084H97.5561C97.9294 8.084 98.1161 8.28 98.1161 8.672V12.228H99.6281V8.588C99.6281 8.196 99.8148 8 100.188 8H103.436C103.809 8 103.996 8.196 103.996 8.588V20.208C103.996 20.5813 103.809 20.768 103.436 20.768H100.188C99.8148 20.768 99.6281 20.5813 99.6281 20.208V16.428H98.1161V20.068C98.1161 20.4413 97.9294 20.628 97.5561 20.628H94.3361C93.9628 20.628 93.7761 20.4413 93.7761 20.068V19.732C93.1414 19.9933 92.3294 20.1987 91.3401 20.348C90.3508 20.4787 89.1094 20.544 87.6161 20.544H82.7441ZM82.9681 22.84C82.9681 22.448 83.1548 22.252 83.5281 22.252H103.408C103.8 22.252 103.996 22.4387 103.996 22.812V30.148C103.996 30.5213 103.8 30.708 103.408 30.708H83.5561C83.1641 30.708 82.9681 30.5213 82.9681 30.148V22.84ZM88.2601 25.388V27.6H98.6761V25.388H88.2601Z" fill="#00BB86"/>
<path d="M58.8097 30.708C58.4364 30.708 58.2497 30.5213 58.2497 30.148V24.884C58.2497 24.492 58.4364 24.296 58.8097 24.296H73.0897V23.12H58.8097C58.4364 23.12 58.2497 22.9333 58.2497 22.56V20.824C58.2497 20.4507 58.4364 20.264 58.8097 20.264H78.0457C78.4191 20.264 78.6057 20.4507 78.6057 20.824V26.004C78.6057 26.3773 78.4191 26.564 78.0457 26.564H63.7937V27.824H78.2977C78.6711 27.824 78.8577 28.0107 78.8577 28.384V30.148C78.8577 30.5213 78.6711 30.708 78.2977 30.708H58.8097ZM62.2537 12.592C62.6644 12.592 62.8604 12.788 62.8417 13.18L62.5897 14.86H65.0257C66.5937 14.86 68.1151 14.7853 69.5897 14.636C71.0831 14.4867 72.3617 14.2067 73.4257 13.796V8.588C73.4257 8.196 73.6217 8 74.0137 8H78.0177C78.4097 8 78.6057 8.196 78.6057 8.588V10.94H79.9217C80.2951 10.94 80.4817 11.136 80.4817 11.528V14.832C80.4817 15.2053 80.2951 15.392 79.9217 15.392H78.6057V18.276C78.6057 18.6493 78.4097 18.836 78.0177 18.836H74.0137C73.6217 18.836 73.4257 18.6493 73.4257 18.276V16.988C72.4924 17.436 71.2417 17.7813 69.6737 18.024C68.1244 18.248 66.3884 18.36 64.4657 18.36H58.0257C57.839 18.36 57.6897 18.3133 57.5777 18.22C57.4657 18.1267 57.4191 17.9773 57.4377 17.772L58.1097 13.124C58.147 12.7693 58.343 12.592 58.6977 12.592H62.2537ZM57.1577 8.84C57.1577 8.46667 57.3537 8.28 57.7457 8.28H70.7377C71.1297 8.28 71.3257 8.46667 71.3257 8.84V11.192C71.3257 11.5653 71.1297 11.752 70.7377 11.752H57.7457C57.3537 11.752 57.1577 11.5653 57.1577 11.192V8.84Z" fill="#00BB86"/>
<path d="M37.479 13.572C37.871 13.572 38.067 13.7587 38.067 14.132V22.672C38.067 24.072 38.207 25.0613 38.487 25.64C38.7857 26.2 39.271 26.48 39.943 26.48C40.6337 26.48 41.119 26.2 41.399 25.64C41.6977 25.0613 41.847 24.072 41.847 22.672V17.52C41.847 16.7173 41.7817 16.0173 41.651 15.42C41.539 14.804 41.3337 14.3 41.035 13.908C40.755 13.4973 40.363 13.1987 39.859 13.012C39.355 12.8067 38.7297 12.704 37.983 12.704H32.859C32.467 12.704 32.271 12.5173 32.271 12.144V9.092C32.271 8.71867 32.467 8.532 32.859 8.532H37.843C41.0537 8.532 43.387 9.26 44.843 10.716C46.3177 12.1533 47.055 14.4773 47.055 17.688V22.476C47.055 24.0627 46.887 25.388 46.551 26.452C46.215 27.4973 45.739 28.3373 45.123 28.972C44.507 29.6067 43.7603 30.0547 42.883 30.316C42.0057 30.5773 41.0257 30.708 39.943 30.708C38.879 30.708 37.9083 30.5773 37.031 30.316C36.1537 30.0547 35.407 29.6067 34.791 28.972C34.175 28.3373 33.699 27.4973 33.363 26.452C33.027 25.388 32.859 24.0627 32.859 22.476V14.132C32.859 13.7587 33.0457 13.572 33.419 13.572H37.479ZM49.799 30.848C49.4257 30.848 49.239 30.6613 49.239 30.288V8.588C49.239 8.196 49.4257 8 49.799 8H53.859C54.2323 8 54.419 8.196 54.419 8.588V30.288C54.419 30.6613 54.2323 30.848 53.859 30.848H49.799Z" fill="#00BB86"/>
<path d="M24.576 18.836C24.184 18.836 23.988 18.6493 23.988 18.276V8.588C23.988 8.196 24.184 8 24.576 8H28.58C28.972 8 29.168 8.196 29.168 8.588V10.94H30.484C30.8573 10.94 31.044 11.136 31.044 11.528V14.832C31.044 15.2053 30.8573 15.392 30.484 15.392H29.168V18.276C29.168 18.6493 28.972 18.836 28.58 18.836H24.576ZM8.98 18.864C8.60667 18.9013 8.42 18.7147 8.42 18.304V15.644C8.42 15.2707 8.60667 15.084 8.98 15.084C9.932 15.0467 10.828 14.9533 11.668 14.804C12.5267 14.6547 13.2827 14.4493 13.936 14.188C14.608 13.908 15.168 13.5907 15.616 13.236C16.064 12.8627 16.372 12.4427 16.54 11.976H8.56C8.18667 11.976 8 11.7893 8 11.416V8.84C8 8.46667 8.18667 8.28 8.56 8.28H21.58C21.972 8.28 22.168 8.476 22.168 8.868V10.744C22.168 11.7893 21.972 12.7133 21.58 13.516C21.188 14.3187 20.656 15.0187 19.984 15.616C19.3307 16.1947 18.5653 16.6893 17.688 17.1C16.8107 17.492 15.8867 17.8187 14.916 18.08C13.9453 18.3227 12.9467 18.5093 11.92 18.64C10.8933 18.752 9.91333 18.8267 8.98 18.864ZM14.104 24.296H28.412C28.7853 24.296 28.972 24.4827 28.972 24.856V26.004C28.972 26.3773 28.7853 26.564 28.412 26.564H14.104V27.796H28.86C29.2333 27.796 29.42 27.9827 29.42 28.356V30.148C29.42 30.5213 29.2333 30.708 28.86 30.708H9.372C8.99867 30.708 8.812 30.5213 8.812 30.148V20.824C8.812 20.4507 8.99867 20.264 9.372 20.264H28.608C28.9813 20.264 29.168 20.4507 29.168 20.824V22.532C29.168 22.9053 28.9813 23.092 28.608 23.092H14.104V24.296Z" fill="#00BB86"/>
</svg>
