<svg width="24" height="24" viewBox="0 0 24 24" fill="none" xmlns="http://www.w3.org/2000/svg">
<circle cx="12.0001" cy="11.9996" r="11.1" fill="white" stroke="#DDDDDD" stroke-width="0.6"/>
<mask id="mask0_13873_27441" style="mask-type:alpha" maskUnits="userSpaceOnUse" x="0" y="0" width="24" height="23">
<circle cx="12.0001" cy="11.4" r="11.1" fill="white" stroke="#DDDDDD" stroke-width="0.6"/>
</mask>
<g mask="url(#mask0_13873_27441)">
<path d="M18.5537 12.8887C18.554 18.2023 20.0921 29.4167 22.1807 30.4668L10.7266 30.3662H0.867188C3.04871 29.3502 5.10513 18.2074 5.10547 12.8887V11.4326H18.5234L18.5537 12.8887Z" fill="#E2E2E2"/>
<path d="M18.5537 12.8887L18.8538 12.8887L18.8536 12.8824L18.5537 12.8887ZM22.1807 30.4668L22.178 30.7668L22.3154 30.1988L22.1807 30.4668ZM10.7266 30.3662L10.7292 30.0662H10.7266V30.3662ZM0.867188 30.3662L0.740528 30.0943L0.867188 30.6662V30.3662ZM5.10547 12.8887L5.40547 12.8887V12.8887H5.10547ZM5.10547 11.4326V11.1326H4.80547V11.4326H5.10547ZM18.5234 11.4326L18.8234 11.4264L18.8173 11.1326H18.5234V11.4326ZM18.5537 12.8887L18.2537 12.8887C18.2538 15.5665 18.6406 19.7164 19.2888 23.3295C19.6128 25.136 20.0041 26.8189 20.449 28.1214C20.6712 28.7721 20.91 29.3373 21.1656 29.7783C21.4162 30.2108 21.7052 30.5635 22.0459 30.7348L22.1807 30.4668L22.3154 30.1988C22.134 30.1075 21.918 29.8801 21.6847 29.4775C21.4564 29.0835 21.2324 28.5588 21.0168 27.9275C20.5858 26.6658 20.2009 25.0162 19.8793 23.2236C19.2362 19.6385 18.8538 15.5245 18.8537 12.8887L18.5537 12.8887ZM22.1807 30.4668L22.1833 30.1668L10.7292 30.0662L10.7266 30.3662L10.7239 30.6662L22.178 30.7668L22.1807 30.4668ZM10.7266 30.3662V30.0662H0.867188V30.3662V30.6662H10.7266V30.3662ZM0.867188 30.3662L0.993847 30.6382C1.34443 30.4749 1.65326 30.1313 1.92799 29.7039C2.20764 29.2688 2.47525 28.7096 2.7289 28.0644C3.23657 26.7732 3.70215 25.1019 4.09727 23.3054C4.88722 19.7137 5.4053 15.5759 5.40547 12.8887L5.10547 12.8887L4.80547 12.8887C4.8053 15.5202 4.295 19.6131 3.51128 23.1765C3.11956 24.9576 2.66198 26.5949 2.17051 27.8449C1.92458 28.4704 1.67362 28.9899 1.42326 29.3795C1.16796 29.7766 0.935329 30.0035 0.740528 30.0943L0.867188 30.3662ZM5.10547 12.8887H5.40547V11.4326H5.10547H4.80547V12.8887H5.10547ZM5.10547 11.4326V11.7326H18.5234V11.4326V11.1326H5.10547V11.4326ZM18.5234 11.4326L18.2235 11.4389L18.2538 12.8949L18.5537 12.8887L18.8536 12.8824L18.8234 11.4264L18.5234 11.4326Z" fill="#BBBBBB"/>
<rect x="5.04072" y="4.94844" width="13.933" height="15.8708" rx="6.96651" fill="#F2F2F2" stroke="#BBBBBB" stroke-width="0.6"/>
<mask id="path-6-inside-1_13873_27441" fill="white">
<path d="M12.0374 3.67969C16.0339 3.67987 19.2736 6.91947 19.2737 10.916V11.7256C19.2737 12.014 19.2547 12.2986 19.2219 12.5781C18.658 12.5366 18.1014 12.4285 17.5637 12.2441C16.3949 11.8432 15.452 11.1397 14.7698 10.2373C13.8346 11.1012 12.5992 11.8403 11.137 12.3418C8.96005 13.0882 6.71087 13.1633 4.86548 12.6826C4.82411 12.3695 4.80005 12.05 4.80005 11.7256V10.916C4.8001 6.91936 8.04069 3.67969 12.0374 3.67969Z"/>
</mask>
<path d="M12.0374 3.67969C16.0339 3.67987 19.2736 6.91947 19.2737 10.916V11.7256C19.2737 12.014 19.2547 12.2986 19.2219 12.5781C18.658 12.5366 18.1014 12.4285 17.5637 12.2441C16.3949 11.8432 15.452 11.1397 14.7698 10.2373C13.8346 11.1012 12.5992 11.8403 11.137 12.3418C8.96005 13.0882 6.71087 13.1633 4.86548 12.6826C4.82411 12.3695 4.80005 12.05 4.80005 11.7256V10.916C4.8001 6.91936 8.04069 3.67969 12.0374 3.67969Z" fill="#E2E2E2"/>
<path d="M12.0374 3.67969L12.0374 3.07969H12.0374V3.67969ZM19.2737 10.916H19.8737V10.916L19.2737 10.916ZM19.2219 12.5781L19.1779 13.1765L19.7509 13.2187L19.8178 12.648L19.2219 12.5781ZM17.5637 12.2441L17.369 12.8117L17.3691 12.8117L17.5637 12.2441ZM14.7698 10.2373L15.2484 9.87546L14.8491 9.34725L14.3626 9.79657L14.7698 10.2373ZM11.137 12.3418L11.3316 12.9094L11.3316 12.9094L11.137 12.3418ZM4.86548 12.6826L4.27065 12.7612L4.32353 13.1615L4.71425 13.2632L4.86548 12.6826ZM4.80005 10.916L4.20005 10.916V10.916H4.80005ZM12.0374 3.67969L12.0373 4.27969C15.7025 4.27985 18.6736 7.25086 18.6737 10.916L19.2737 10.916L19.8737 10.916C19.8736 6.58808 16.3652 3.07989 12.0374 3.07969L12.0374 3.67969ZM19.2737 10.916H18.6737V11.7256H19.2737H19.8737V10.916H19.2737ZM19.2737 11.7256H18.6737C18.6737 11.9877 18.6564 12.2488 18.626 12.5082L19.2219 12.5781L19.8178 12.648C19.853 12.3483 19.8737 12.0402 19.8737 11.7256H19.2737ZM19.2219 12.5781L19.266 11.9797C18.7494 11.9417 18.2437 11.843 17.7583 11.6766L17.5637 12.2441L17.3691 12.8117C17.9591 13.014 18.5667 13.1315 19.1779 13.1765L19.2219 12.5781ZM17.5637 12.2441L17.7584 11.6766C16.703 11.3146 15.8588 10.6829 15.2484 9.87546L14.7698 10.2373L14.2912 10.5991C15.0451 11.5964 16.0867 12.3718 17.369 12.8117L17.5637 12.2441ZM14.7698 10.2373L14.3626 9.79657C13.4942 10.5988 12.3332 11.2973 10.9423 11.7742L11.137 12.3418L11.3316 12.9094C12.8653 12.3834 14.1749 11.6036 15.1769 10.678L14.7698 10.2373ZM11.137 12.3418L10.9424 11.7742C8.86808 12.4855 6.73931 12.5507 5.01671 12.102L4.86548 12.6826L4.71425 13.2632C6.68244 13.7759 9.05201 13.691 11.3316 12.9094L11.137 12.3418ZM4.86548 12.6826L5.46031 12.604C5.42192 12.3134 5.40005 12.0204 5.40005 11.7256H4.80005H4.20005C4.20005 12.0796 4.22631 12.4256 4.27065 12.7612L4.86548 12.6826ZM4.80005 11.7256H5.40005V10.916H4.80005H4.20005V11.7256H4.80005ZM4.80005 10.916L5.40005 10.916C5.4001 7.25083 8.37196 4.27969 12.0374 4.27969V3.67969V3.07969C7.70941 3.07969 4.2001 6.58789 4.20005 10.916L4.80005 10.916Z" fill="#BBBBBB" mask="url(#path-6-inside-1_13873_27441)"/>
<rect x="9.58521" y="13.3682" width="0.968868" height="1.93774" rx="0.484434" fill="#8A8A8A"/>
<rect x="13.4609" y="13.3682" width="0.968868" height="1.93774" rx="0.484434" fill="#8A8A8A"/>
<path d="M10.554 17.2432C11.2806 18.212 12.7339 18.212 13.4606 17.2432" stroke="#8A8A8A" stroke-width="0.6" stroke-linecap="round" stroke-linejoin="round"/>
</g>
</svg>
