<svg width="310" height="130" viewBox="0 0 310 130" fill="none" xmlns="http://www.w3.org/2000/svg">
<rect x="0.5" y="0.5" width="309" height="129" rx="4.5" stroke="#9747FF" stroke-dasharray="10 5"/>
<path d="M31 36.0002H37.6667C39.5076 36.0002 41 34.5078 41 32.6668C41 30.8259 39.5076 29.3335 37.6667 29.3335H31V36.0002ZM31 36.0002H38.5C40.3409 36.0002 41.8333 37.4925 41.8333 39.3335C41.8333 41.1744 40.3409 42.6668 38.5 42.6668H31V36.0002Z" stroke="#A4A4A4" stroke-width="1.67" stroke-linecap="round" stroke-linejoin="round"/>
<path d="M31 81.0002H37.6667C39.5076 81.0002 41 79.5078 41 77.6668C41 75.8259 39.5076 74.3335 37.6667 74.3335H31V81.0002ZM31 81.0002H38.5C40.3409 81.0002 41.8333 82.4925 41.8333 84.3335C41.8333 86.1744 40.3409 87.6668 38.5 87.6668H31V81.0002Z" stroke="#009973" stroke-width="1.67" stroke-linecap="round" stroke-linejoin="round"/>
<path d="M75.8334 29.3335H68.3334M71.6667 42.6668H64.1667M72.5001 29.3335L67.5001 42.6668" stroke="#A4A4A4" stroke-width="1.67" stroke-linecap="round" stroke-linejoin="round"/>
<path d="M75.8334 74.3335H68.3334M71.6667 87.6668H64.1667M72.5001 74.3335L67.5001 87.6668" stroke="#009973" stroke-width="1.67" stroke-linecap="round" stroke-linejoin="round"/>
<path d="M109 29.3335V35.1668C109 37.9283 106.761 40.1668 104 40.1668C101.238 40.1668 98.9999 37.9283 98.9999 35.1668V29.3335M97.3333 43.5002H110.667" stroke="#A4A4A4" stroke-width="1.67" stroke-linecap="round" stroke-linejoin="round"/>
<path d="M109 74.3335V80.1668C109 82.9283 106.761 85.1668 104 85.1668C101.238 85.1668 98.9999 82.9283 98.9999 80.1668V74.3335M97.3333 88.5002H110.667" stroke="#009973" stroke-width="1.67" stroke-linecap="round" stroke-linejoin="round"/>
<path d="M141.333 34.3333H130.5M144.667 31H130.5M144.667 37.6667H130.5M141.333 41H130.5" stroke="#A4A4A4" stroke-width="1.67" stroke-linecap="round" stroke-linejoin="round"/>
<path d="M202.667 34.3333H213.5M199.333 31H213.5M199.333 37.6667H213.5M202.667 41H213.5" stroke="#A4A4A4" stroke-width="1.67" stroke-linecap="round" stroke-linejoin="round"/>
<path d="M141.333 79.3333H130.5M144.667 76H130.5M144.667 82.6667H130.5M141.333 86H130.5" stroke="#009973" stroke-width="1.67" stroke-linecap="round" stroke-linejoin="round"/>
<path d="M202.667 79.3333H213.5M199.333 76H213.5M199.333 82.6667H213.5M202.667 86H213.5" stroke="#009973" stroke-width="1.67" stroke-linecap="round" stroke-linejoin="round"/>
<path d="M177 34.3333H167M179.5 31H164.5M179.5 37.6667H164.5M177 41H167" stroke="#A4A4A4" stroke-width="1.67" stroke-linecap="round" stroke-linejoin="round"/>
<path d="M177 79.3333H167M179.5 76H164.5M179.5 82.6667H164.5M177 86H167" stroke="#009973" stroke-width="1.67" stroke-linecap="round" stroke-linejoin="round"/>
<path d="M247.5 35.9998L237.5 35.9998M247.5 30.9998L237.5 30.9998M247.5 40.9998L237.5 40.9998M234.167 35.9998C234.167 36.4601 233.794 36.8332 233.333 36.8332C232.873 36.8332 232.5 36.4601 232.5 35.9998C232.5 35.5396 232.873 35.1665 233.333 35.1665C233.794 35.1665 234.167 35.5396 234.167 35.9998ZM234.167 30.9998C234.167 31.4601 233.794 31.8332 233.333 31.8332C232.873 31.8332 232.5 31.4601 232.5 30.9998C232.5 30.5396 232.873 30.1665 233.333 30.1665C233.794 30.1665 234.167 30.5396 234.167 30.9998ZM234.167 40.9998C234.167 41.4601 233.794 41.8332 233.333 41.8332C232.873 41.8332 232.5 41.4601 232.5 40.9998C232.5 40.5396 232.873 40.1665 233.333 40.1665C233.794 40.1665 234.167 40.5396 234.167 40.9998Z" stroke="#A4A4A4" stroke-width="1.67" stroke-linecap="round" stroke-linejoin="round"/>
<path d="M247.5 80.9998L237.5 80.9998M247.5 75.9998L237.5 75.9998M247.5 85.9998L237.5 85.9998M234.167 80.9998C234.167 81.4601 233.794 81.8332 233.333 81.8332C232.873 81.8332 232.5 81.4601 232.5 80.9998C232.5 80.5396 232.873 80.1665 233.333 80.1665C233.794 80.1665 234.167 80.5396 234.167 80.9998ZM234.167 75.9998C234.167 76.4601 233.794 76.8332 233.333 76.8332C232.873 76.8332 232.5 76.4601 232.5 75.9998C232.5 75.5396 232.873 75.1665 233.333 75.1665C233.794 75.1665 234.167 75.5396 234.167 75.9998ZM234.167 85.9998C234.167 86.4601 233.794 86.8332 233.333 86.8332C232.873 86.8332 232.5 86.4601 232.5 85.9998C232.5 85.5396 232.873 85.1665 233.333 85.1665C233.794 85.1665 234.167 85.5396 234.167 85.9998Z" stroke="#009973" stroke-width="1.67" stroke-linecap="round" stroke-linejoin="round"/>
<path d="M277.5 43.5H269.776C269.271 43.5 269.019 43.5 268.902 43.4002C268.801 43.3135 268.747 43.1836 268.757 43.0506C268.769 42.8974 268.948 42.7189 269.305 42.3619L276.391 35.2761C276.721 34.9461 276.886 34.7811 277.076 34.7193C277.243 34.6649 277.423 34.6649 277.591 34.7193C277.781 34.7811 277.946 34.9461 278.276 35.2761L281.5 38.5V39.5M277.5 43.5C278.9 43.5 279.6 43.5 280.135 43.2275C280.605 42.9878 280.988 42.6054 281.228 42.135C281.5 41.6002 281.5 40.9001 281.5 39.5M277.5 43.5H270.5C269.1 43.5 268.4 43.5 267.865 43.2275C267.395 42.9878 267.012 42.6054 266.772 42.135C266.5 41.6002 266.5 40.9001 266.5 39.5V32.5C266.5 31.0999 266.5 30.3998 266.772 29.865C267.012 29.3946 267.395 29.0122 267.865 28.7725C268.4 28.5 269.1 28.5 270.5 28.5H277.5C278.9 28.5 279.6 28.5 280.135 28.7725C280.605 29.0122 280.988 29.3946 281.228 29.865C281.5 30.3998 281.5 31.0999 281.5 32.5V39.5M272.75 33.0833C272.75 34.0038 272.004 34.75 271.083 34.75C270.163 34.75 269.417 34.0038 269.417 33.0833C269.417 32.1629 270.163 31.4167 271.083 31.4167C272.004 31.4167 272.75 32.1629 272.75 33.0833Z" stroke="#A4A4A4" stroke-width="1.67" stroke-linecap="round" stroke-linejoin="round"/>
<path d="M277.5 88.5H269.776C269.271 88.5 269.019 88.5 268.902 88.4002C268.801 88.3135 268.747 88.1836 268.757 88.0506C268.769 87.8974 268.948 87.7189 269.305 87.3619L276.391 80.2761C276.721 79.9461 276.886 79.7811 277.076 79.7193C277.243 79.6649 277.423 79.6649 277.591 79.7193C277.781 79.7811 277.946 79.9461 278.276 80.2761L281.5 83.5V84.5M277.5 88.5C278.9 88.5 279.6 88.5 280.135 88.2275C280.605 87.9878 280.988 87.6054 281.228 87.135C281.5 86.6002 281.5 85.9001 281.5 84.5M277.5 88.5H270.5C269.1 88.5 268.4 88.5 267.865 88.2275C267.395 87.9878 267.012 87.6054 266.772 87.135C266.5 86.6002 266.5 85.9001 266.5 84.5V77.5C266.5 76.0999 266.5 75.3998 266.772 74.865C267.012 74.3946 267.395 74.0122 267.865 73.7725C268.4 73.5 269.1 73.5 270.5 73.5H277.5C278.9 73.5 279.6 73.5 280.135 73.7725C280.605 74.0122 280.988 74.3946 281.228 74.865C281.5 75.3998 281.5 76.0999 281.5 77.5V84.5M272.75 78.0833C272.75 79.0038 272.004 79.75 271.083 79.75C270.163 79.75 269.417 79.0038 269.417 78.0833C269.417 77.1629 270.163 76.4167 271.083 76.4167C272.004 76.4167 272.75 77.1629 272.75 78.0833Z" stroke="#009973" stroke-width="1.67" stroke-linecap="round" stroke-linejoin="round"/>
</svg>
