<svg width="24" height="24" viewBox="0 0 24 24" fill="none" xmlns="http://www.w3.org/2000/svg">
<circle cx="12.0001" cy="11.9996" r="11.1" fill="white" stroke="#DDDDDD" stroke-width="0.6"/>
<mask id="mask0_20498_41066" style="mask-type:alpha" maskUnits="userSpaceOnUse" x="0" y="0" width="24" height="23">
<circle cx="12.0001" cy="11.4" r="11.1" fill="white" stroke="#DDDDDD" stroke-width="0.6"/>
</mask>
<g mask="url(#mask0_20498_41066)">
<path d="M18.5537 12.8887C18.554 18.2023 20.0921 29.4167 22.1807 30.4668L10.7266 30.3662H0.867188C3.04871 29.3502 5.10513 18.2074 5.10547 12.8887V11.4326H18.5234L18.5537 12.8887Z" fill="#E2E2E2"/>
<path d="M18.5537 12.8887L18.8538 12.8887L18.8536 12.8824L18.5537 12.8887ZM22.1807 30.4668L22.178 30.7668L22.3154 30.1988L22.1807 30.4668ZM10.7266 30.3662L10.7292 30.0662H10.7266V30.3662ZM0.867188 30.3662L0.740528 30.0943L0.867188 30.6662V30.3662ZM5.10547 12.8887L5.40547 12.8887V12.8887H5.10547ZM5.10547 11.4326V11.1326H4.80547V11.4326H5.10547ZM18.5234 11.4326L18.8234 11.4264L18.8173 11.1326H18.5234V11.4326ZM18.5537 12.8887L18.2537 12.8887C18.2538 15.5665 18.6406 19.7164 19.2888 23.3295C19.6128 25.136 20.0041 26.8189 20.449 28.1214C20.6712 28.7721 20.91 29.3373 21.1656 29.7783C21.4162 30.2108 21.7052 30.5635 22.0459 30.7348L22.1807 30.4668L22.3154 30.1988C22.134 30.1075 21.918 29.8801 21.6847 29.4775C21.4564 29.0835 21.2324 28.5588 21.0168 27.9275C20.5858 26.6658 20.2009 25.0162 19.8793 23.2236C19.2362 19.6385 18.8538 15.5245 18.8537 12.8887L18.5537 12.8887ZM22.1807 30.4668L22.1833 30.1668L10.7292 30.0662L10.7266 30.3662L10.7239 30.6662L22.178 30.7668L22.1807 30.4668ZM10.7266 30.3662V30.0662H0.867188V30.3662V30.6662H10.7266V30.3662ZM0.867188 30.3662L0.993847 30.6382C1.34443 30.4749 1.65326 30.1313 1.92799 29.7039C2.20764 29.2688 2.47525 28.7096 2.7289 28.0644C3.23657 26.7732 3.70215 25.1019 4.09727 23.3054C4.88722 19.7137 5.4053 15.5759 5.40547 12.8887L5.10547 12.8887L4.80547 12.8887C4.8053 15.5202 4.295 19.6131 3.51128 23.1765C3.11956 24.9576 2.66198 26.5949 2.17051 27.8449C1.92458 28.4704 1.67362 28.9899 1.42326 29.3795C1.16796 29.7766 0.935329 30.0035 0.740528 30.0943L0.867188 30.3662ZM5.10547 12.8887H5.40547V11.4326H5.10547H4.80547V12.8887H5.10547ZM5.10547 11.4326V11.7326H18.5234V11.4326V11.1326H5.10547V11.4326ZM18.5234 11.4326L18.2235 11.4389L18.2538 12.8949L18.5537 12.8887L18.8536 12.8824L18.8234 11.4264L18.5234 11.4326Z" fill="#BBBBBB"/>
<rect x="5.04072" y="4.94941" width="13.933" height="15.8708" rx="6.96651" fill="#F2F2F2" stroke="#BBBBBB" stroke-width="0.6"/>
<mask id="path-6-inside-1_20498_41066" fill="white">
<path d="M12.0374 3.68018C16.0339 3.68036 19.2736 6.91996 19.2737 10.9165V11.7261C19.2737 12.0145 19.2547 12.299 19.2219 12.5786C18.658 12.5371 18.1014 12.429 17.5637 12.2446C16.3949 11.8437 15.452 11.1402 14.7698 10.2378C13.8346 11.1017 12.5992 11.8408 11.137 12.3423C8.96005 13.0887 6.71087 13.1638 4.86548 12.6831C4.82411 12.37 4.80005 12.0505 4.80005 11.7261V10.9165C4.8001 6.91985 8.04069 3.68018 12.0374 3.68018Z"/>
</mask>
<path d="M12.0374 3.68018C16.0339 3.68036 19.2736 6.91996 19.2737 10.9165V11.7261C19.2737 12.0145 19.2547 12.299 19.2219 12.5786C18.658 12.5371 18.1014 12.429 17.5637 12.2446C16.3949 11.8437 15.452 11.1402 14.7698 10.2378C13.8346 11.1017 12.5992 11.8408 11.137 12.3423C8.96005 13.0887 6.71087 13.1638 4.86548 12.6831C4.82411 12.37 4.80005 12.0505 4.80005 11.7261V10.9165C4.8001 6.91985 8.04069 3.68018 12.0374 3.68018Z" fill="#E2E2E2"/>
<path d="M12.0374 3.68018L12.0374 3.08018H12.0374V3.68018ZM19.2737 10.9165H19.8737V10.9165L19.2737 10.9165ZM19.2219 12.5786L19.1779 13.177L19.7509 13.2192L19.8178 12.6485L19.2219 12.5786ZM17.5637 12.2446L17.369 12.8122L17.3691 12.8122L17.5637 12.2446ZM14.7698 10.2378L15.2484 9.87595L14.8491 9.34774L14.3626 9.79706L14.7698 10.2378ZM11.137 12.3423L11.3316 12.9098L11.3316 12.9098L11.137 12.3423ZM4.86548 12.6831L4.27065 12.7617L4.32353 13.162L4.71425 13.2637L4.86548 12.6831ZM4.80005 10.9165L4.20005 10.9165V10.9165H4.80005ZM12.0374 3.68018L12.0373 4.28018C15.7025 4.28034 18.6736 7.25135 18.6737 10.9165L19.2737 10.9165L19.8737 10.9165C19.8736 6.58857 16.3652 3.08037 12.0374 3.08018L12.0374 3.68018ZM19.2737 10.9165H18.6737V11.7261H19.2737H19.8737V10.9165H19.2737ZM19.2737 11.7261H18.6737C18.6737 11.9882 18.6564 12.2493 18.626 12.5087L19.2219 12.5786L19.8178 12.6485C19.853 12.3488 19.8737 12.0407 19.8737 11.7261H19.2737ZM19.2219 12.5786L19.266 11.9802C18.7494 11.9422 18.2437 11.8435 17.7583 11.6771L17.5637 12.2446L17.3691 12.8122C17.9591 13.0145 18.5667 13.132 19.1779 13.177L19.2219 12.5786ZM17.5637 12.2446L17.7584 11.6771C16.703 11.3151 15.8588 10.6834 15.2484 9.87595L14.7698 10.2378L14.2912 10.5996C15.0451 11.5969 16.0867 12.3723 17.369 12.8122L17.5637 12.2446ZM14.7698 10.2378L14.3626 9.79706C13.4942 10.5993 12.3332 11.2978 10.9423 11.7747L11.137 12.3423L11.3316 12.9098C12.8653 12.3839 14.1749 11.6041 15.1769 10.6785L14.7698 10.2378ZM11.137 12.3423L10.9424 11.7747C8.86808 12.486 6.73931 12.5511 5.01671 12.1025L4.86548 12.6831L4.71425 13.2637C6.68244 13.7764 9.05201 13.6915 11.3316 12.9098L11.137 12.3423ZM4.86548 12.6831L5.46031 12.6045C5.42192 12.3139 5.40005 12.0209 5.40005 11.7261H4.80005H4.20005C4.20005 12.0801 4.22631 12.4261 4.27065 12.7617L4.86548 12.6831ZM4.80005 11.7261H5.40005V10.9165H4.80005H4.20005V11.7261H4.80005ZM4.80005 10.9165L5.40005 10.9165C5.4001 7.25132 8.37196 4.28018 12.0374 4.28018V3.68018V3.08018C7.70941 3.08018 4.2001 6.58838 4.20005 10.9165L4.80005 10.9165Z" fill="#BBBBBB" mask="url(#path-6-inside-1_20498_41066)"/>
<rect x="9.58521" y="13.3687" width="0.968868" height="1.93774" rx="0.484434" fill="#8A8A8A"/>
<rect x="13.4609" y="13.3687" width="0.968868" height="1.93774" rx="0.484434" fill="#8A8A8A"/>
<path d="M10.554 17.2441C11.2806 18.213 12.7339 18.213 13.4606 17.2441" stroke="#8A8A8A" stroke-width="0.6" stroke-linecap="round" stroke-linejoin="round"/>
</g>
</svg>
