<svg width="54" height="54" viewBox="0 0 54 54" fill="none" xmlns="http://www.w3.org/2000/svg">
<circle cx="27" cy="27" r="21.5" fill="white" stroke="#DDDDDD"/>
<mask id="mask0_13873_27396" style="mask-type:alpha" maskUnits="userSpaceOnUse" x="6" y="6" width="43" height="43">
<circle cx="27.5501" cy="27.5496" r="20.95" fill="white" stroke="#DDDDDD"/>
</mask>
<g mask="url(#mask0_13873_27396)">
<path d="M39.2834 29.9619C39.2835 39.9218 42.1677 60.9445 46.0833 62.9131L24.6125 62.7256H6.12915C10.219 60.8221 14.0744 39.9317 14.0745 29.9619V27.2324H39.2258L39.2834 29.9619Z" fill="#E2E2E2"/>
<path d="M39.2834 29.9619L39.7836 29.9619L39.7833 29.9514L39.2834 29.9619ZM46.0833 62.9131L46.0789 63.4131L46.3078 62.4664L46.0833 62.9131ZM24.6125 62.7256L24.6169 62.2256H24.6125V62.7256ZM6.12915 62.7256L5.91817 62.2723L6.12915 63.2256V62.7256ZM14.0745 29.9619L14.5745 29.9619V29.9619H14.0745ZM14.0745 27.2324V26.7324H13.5745V27.2324H14.0745ZM39.2258 27.2324L39.7257 27.2219L39.7154 26.7324H39.2258V27.2324ZM39.2834 29.9619L38.7834 29.9619C38.7835 34.9768 39.5082 42.7524 40.7229 49.5225C41.3302 52.9074 42.0631 56.0589 42.8958 58.4962C43.3118 59.714 43.758 60.7693 44.2343 61.5912C44.7023 62.3988 45.2365 63.047 45.8587 63.3598L46.0833 62.9131L46.3078 62.4664C45.9511 62.287 45.5387 61.8477 45.0995 61.0898C44.6686 60.3464 44.2471 59.3585 43.8421 58.173C43.0327 55.8037 42.3104 52.7078 41.7072 49.3459C40.5009 42.6226 39.7835 34.9069 39.7834 29.9619L39.2834 29.9619ZM46.0833 62.9131L46.0876 62.4131L24.6169 62.2256L24.6125 62.7256L24.6082 63.2256L46.0789 63.4131L46.0833 62.9131ZM24.6125 62.7256V62.2256H6.12915V62.7256V63.2256H24.6125V62.7256ZM6.12915 62.7256L6.34013 63.1789C6.98124 62.8805 7.55233 62.2486 8.06537 61.4506C8.58661 60.6397 9.08658 59.5955 9.56131 58.3882C10.5114 55.9719 11.3834 52.8423 12.1238 49.476C13.6041 42.7457 14.5744 34.9932 14.5745 29.9619L14.0745 29.9619L13.5745 29.9619C13.5744 34.9004 12.617 42.5781 11.1471 49.2612C10.4124 52.6017 9.55374 55.6747 8.63067 58.0223C8.16881 59.1969 7.69659 60.1749 7.22418 60.9098C6.74355 61.6575 6.29952 62.0948 5.91817 62.2723L6.12915 62.7256ZM14.0745 29.9619H14.5745V27.2324H14.0745H13.5745V29.9619H14.0745ZM14.0745 27.2324V27.7324H39.2258V27.2324V26.7324H14.0745V27.2324ZM39.2258 27.2324L38.7259 27.243L38.7836 29.9725L39.2834 29.9619L39.7833 29.9514L39.7257 27.2219L39.2258 27.2324Z" fill="#BBBBBB"/>
<rect x="13.8921" y="15.0166" width="26.2429" height="29.8753" rx="13.1215" fill="#F2F2F2" stroke="#BBBBBB"/>
<mask id="path-6-inside-1_13873_27396" fill="white">
<path d="M26.8174 12.7002C34.4484 12.7002 40.6348 18.8865 40.6348 26.5176V27.5322C40.6348 28.1598 40.5918 28.7774 40.5107 29.3828C39.4427 29.3036 38.3896 29.0978 37.3711 28.7549C35.14 28.0037 33.3407 26.6857 32.0381 24.9951C30.2526 26.6146 27.8925 27.9984 25.1006 28.9385C20.9543 30.3344 16.67 30.4783 13.1514 29.585C13.0516 28.9152 13 28.2297 13 27.5322V26.5176C13 18.8866 19.1864 12.7002 26.8174 12.7002Z"/>
</mask>
<path d="M26.8174 12.7002C34.4484 12.7002 40.6348 18.8865 40.6348 26.5176V27.5322C40.6348 28.1598 40.5918 28.7774 40.5107 29.3828C39.4427 29.3036 38.3896 29.0978 37.3711 28.7549C35.14 28.0037 33.3407 26.6857 32.0381 24.9951C30.2526 26.6146 27.8925 27.9984 25.1006 28.9385C20.9543 30.3344 16.67 30.4783 13.1514 29.585C13.0516 28.9152 13 28.2297 13 27.5322V26.5176C13 18.8866 19.1864 12.7002 26.8174 12.7002Z" fill="#E2E2E2"/>
<path d="M26.8174 12.7002V11.7002H26.8174L26.8174 12.7002ZM40.6348 27.5322L41.6348 27.5322V27.5322H40.6348ZM40.5107 29.3828L40.4368 30.3801L41.3768 30.4498L41.5019 29.5155L40.5107 29.3828ZM37.3711 28.7549L37.052 29.7026L37.0521 29.7026L37.3711 28.7549ZM32.0381 24.9951L32.8302 24.3848L32.1689 23.5264L31.3663 24.2544L32.0381 24.9951ZM25.1006 28.9385L25.4197 29.8862L25.4197 29.8862L25.1006 28.9385ZM13.1514 29.585L12.1623 29.7323L12.2603 30.3905L12.9053 30.5542L13.1514 29.585ZM13 27.5322H12V27.5322L13 27.5322ZM26.8174 12.7002V13.7002C33.8961 13.7002 39.6348 19.4388 39.6348 26.5176H40.6348H41.6348C41.6348 18.3342 35.0007 11.7002 26.8174 11.7002V12.7002ZM40.6348 26.5176H39.6348V27.5322H40.6348H41.6348V26.5176H40.6348ZM40.6348 27.5322L39.6348 27.5322C39.6348 28.1141 39.5949 28.6874 39.5196 29.2501L40.5107 29.3828L41.5019 29.5155C41.5886 28.8675 41.6348 28.2055 41.6348 27.5322L40.6348 27.5322ZM40.5107 29.3828L40.5847 28.3855C39.596 28.3123 38.6255 28.122 37.6901 27.8071L37.3711 28.7549L37.0521 29.7026C38.1537 30.0735 39.2895 30.295 40.4368 30.3801L40.5107 29.3828ZM37.3711 28.7549L37.6902 27.8072C35.6456 27.1188 34.0113 25.9176 32.8302 24.3848L32.0381 24.9951L31.246 25.6055C32.6701 27.4538 34.6344 28.8887 37.052 29.7026L37.3711 28.7549ZM32.0381 24.9951L31.3663 24.2544C29.6931 25.772 27.4566 27.09 24.7815 27.9908L25.1006 28.9385L25.4197 29.8862C28.3284 28.9068 30.8121 27.4571 32.7099 25.7358L32.0381 24.9951ZM25.1006 28.9385L24.7815 27.9907C20.8034 29.3301 16.7156 29.4581 13.3974 28.6157L13.1514 29.585L12.9053 30.5542C16.6245 31.4984 21.1052 31.3388 25.4197 29.8862L25.1006 28.9385ZM13.1514 29.585L14.1405 29.4376C14.048 28.8166 14 28.1803 14 27.5322L13 27.5322L12 27.5322C12 28.2791 12.0553 29.0139 12.1623 29.7323L13.1514 29.585ZM13 27.5322H14V26.5176H13H12V27.5322H13ZM13 26.5176H14C14 19.4389 19.7387 13.7002 26.8174 13.7002L26.8174 12.7002L26.8174 11.7002C18.6341 11.7002 12 18.3343 12 26.5176H13Z" fill="#BBBBBB" mask="url(#path-6-inside-1_13873_27396)"/>
<rect x="22.4731" y="30.8613" width="1.8162" height="3.63239" rx="0.908098" fill="#8A8A8A"/>
<rect x="29.738" y="30.8613" width="1.8162" height="3.63239" rx="0.908098" fill="#8A8A8A"/>
<path d="M24.2893 38.127C25.6515 39.9431 28.3757 39.9431 29.7379 38.127" stroke="#8A8A8A" stroke-linecap="round" stroke-linejoin="round"/>
<path d="M20.657 48.5693L21.5651 57.6503L26.1056 52.6971" stroke="#CCCCCC" stroke-linecap="round" stroke-linejoin="round"/>
<path d="M33.3704 48.5693L32.4623 57.6503L27.9218 52.6971" stroke="#CCCCCC" stroke-linecap="round" stroke-linejoin="round"/>
</g>
</svg>
